<?xml version="1.0" standalone="no"?>
<!DOCTYPE svg PUBLIC "-//W3C//DTD SVG 20010904//EN"
 "http://www.w3.org/TR/2001/REC-SVG-20010904/DTD/svg10.dtd">
<svg version="1.0" xmlns="http://www.w3.org/2000/svg"
 width="256.000000pt" height="257.000000pt" viewBox="0 0 256.000000 257.000000"
 preserveAspectRatio="xMidYMid meet">
<metadata>
Created by potrace 1.15, written by Peter Selinger 2001-2017
</metadata>
<g transform="translate(0.000000,257.000000) scale(0.100000,-0.100000)"
fill="#000000" stroke="none">
<path d="M1117 2555 c-277 -39 -527 -161 -723 -351 -311 -303 -451 -743 -369
-1162 49 -250 173 -482 359 -667 180 -180 395 -295 657 -351 116 -25 361 -25
479 -1 473 100 840 431 984 887 76 241 73 532 -9 776 -126 374 -419 674 -793
808 -173 62 -408 87 -585 61z m356 -110 c165 -29 307 -84 455 -177 75 -48 92
-18 -141 -254 l-170 -172 -61 29 c-90 42 -169 59 -271 59 -103 0 -181 -17
-274 -61 l-65 -30 -188 188 c-103 103 -188 190 -188 193 0 12 174 114 249 146
73 32 231 77 306 87 75 10 270 6 348 -8z m812 -550 c26 -41 62 -112 81 -158
123 -303 121 -616 -7 -922 -28 -68 -121 -229 -137 -239 -5 -3 -92 79 -195 182
l-187 187 35 80 c78 181 70 401 -21 564 l-24 44 187 189 c216 217 184 208 268
73z m-1742 -83 l188 -188 -25 -50 c-90 -182 -90 -398 1 -578 l25 -49 -188
-188 c-104 -104 -192 -189 -195 -189 -13 0 -88 126 -133 220 -72 153 -98 265
-103 456 -4 127 -2 179 12 250 19 98 63 231 102 309 28 57 115 195 123 195 3
0 90 -85 193 -188z m911 -11 c167 -59 289 -182 346 -351 31 -89 31 -237 1
-331 -69 -216 -291 -380 -514 -379 -348 1 -611 332 -532 669 46 192 209 357
401 406 79 20 220 13 298 -14z m-456 -1095 c102 -51 149 -61 287 -61 138 0
185 10 289 62 l49 25 190 -190 189 -189 -56 -41 c-114 -81 -288 -153 -448
-186 -114 -24 -324 -21 -451 5 -156 31 -291 88 -431 182 l-58 39 188 189 c104
104 192 189 197 189 4 0 29 -11 55 -24z"/>
</g>
</svg>
